<svg width="50" height="50" viewBox="0 0 50 50" fill="none" xmlns="http://www.w3.org/2000/svg">
<rect width="50" height="50" rx="5" transform="matrix(-1 0 0 1 50 0)" fill="#D5621D"/>
<path d="M21.6161 32.9548C21.3817 32.7204 21.2501 32.4025 21.2501 32.0711C21.2501 31.7396 21.3817 31.4217 21.6161 31.1873L27.8036 24.9998L21.6161 18.8123C21.3884 18.5766 21.2624 18.2608 21.2652 17.9331C21.2681 17.6053 21.3995 17.2918 21.6313 17.06C21.8631 16.8283 22.1766 16.6968 22.5043 16.694C22.8321 16.6911 23.1478 16.8171 23.3836 17.0448L30.4548 24.1161C30.6892 24.3505 30.8208 24.6684 30.8208 24.9998C30.8208 25.3313 30.6892 25.6492 30.4548 25.8836L23.3836 32.9548C23.1492 33.1892 22.8313 33.3208 22.4998 33.3208C22.1684 33.3208 21.8505 33.1892 21.6161 32.9548Z" fill="white"/>
</svg>
