<svg width="50" height="50" viewBox="0 0 50 50" fill="none" xmlns="http://www.w3.org/2000/svg">
<rect width="50" height="50" rx="5" fill="#D5621D"/>
<path d="M28.3839 32.9548C28.6183 32.7204 28.7499 32.4025 28.7499 32.0711C28.7499 31.7396 28.6183 31.4217 28.3839 31.1873L22.1964 24.9998L28.3839 18.8123C28.6116 18.5766 28.7376 18.2608 28.7348 17.9331C28.7319 17.6053 28.6005 17.2918 28.3687 17.06C28.1369 16.8283 27.8234 16.6968 27.4957 16.694C27.1679 16.6911 26.8522 16.8171 26.6164 17.0448L19.5452 24.1161C19.3108 24.3505 19.1792 24.6684 19.1792 24.9998C19.1792 25.3313 19.3108 25.6492 19.5452 25.8836L26.6164 32.9548C26.8508 33.1892 27.1687 33.3208 27.5002 33.3208C27.8316 33.3208 28.1495 33.1892 28.3839 32.9548Z" fill="white"/>
</svg>
